<?xml version="1.0" encoding="UTF-8"?>
<svg width="60mm" height="75mm" version="1.1" viewBox="0 0 60 75" xmlns="http://www.w3.org/2000/svg" xmlns:cc="http://creativecommons.org/ns#" xmlns:dc="http://purl.org/dc/elements/1.1/" xmlns:rdf="http://www.w3.org/1999/02/22-rdf-syntax-ns#">
 <title>gh0st</title>
 <metadata>
  <rdf:RDF>
   <cc:Work rdf:about="">
    <dc:format>image/svg+xml</dc:format>
    <dc:type rdf:resource="http://purl.org/dc/dcmitype/StillImage"/>
    <dc:title>gh0st</dc:title>
   </cc:Work>
  </rdf:RDF>
 </metadata>
 <g transform="translate(-15 -6.9)">
  <g transform="translate(-5.1 -8.1)" image-rendering="auto">
   <path d="m20 75v-15l60-30v60l-1-1.4c-4.8-6.3-6.3-8.3-6.4-8.3-0.052-0.014-1.8 2.2-3.8 4.9-2 2.7-3.7 4.9-3.8 4.9-0.041-0.026-1.7-2.2-3.8-4.9-2-2.7-3.7-4.9-3.7-4.9-0.032 0-1.7 2.2-3.8 4.9-2 2.7-3.7 4.9-3.8 4.9-0.035-0.011-1.7-2.2-3.7-4.9-2-2.7-3.7-4.9-3.8-4.9-0.042-0.016-1.7 2.1-3.7 4.7-2 2.6-3.7 4.8-3.8 4.9-0.15 0.16-0.33-0.057-3.9-4.7-2-2.7-3.7-4.9-3.8-4.9-0.051-0.015-1.3 1.7-2.8 3.7-1.5 2.1-3.2 4.3-3.6 5l-0.89 1.2z" fill="#666"/>
   <path d="m20 45v-15l30-15 30 15-30 15c-16 8.3-30 15-30 15-0.05 0.018-0.084-6.2-0.084-15z" fill="#e6e6e6"/>
   <ellipse cx="65" cy="42" rx="5" ry="12" fill="#f00"/>
   <ellipse cx="45" cy="42" rx="5" ry="12" fill="#00f"/>
  </g>
 </g>
</svg>
